<?xml version="1.0" encoding="UTF-8" standalone="no"?>
<!-- Created with Inkscape (http://www.inkscape.org/) -->

<svg
   width="192.0px"
   height="192.0px"
   viewBox="0 0 192.0 192.0"
   version="1.1"
   id="SVGRoot"
   sodipodi:docname="avatar.svg"
   inkscape:version="1.2 (dc2aedaf03, 2022-05-15)"
   inkscape:export-filename="avatar.png"
   inkscape:export-xdpi="96"
   inkscape:export-ydpi="96"
   xmlns:inkscape="http://www.inkscape.org/namespaces/inkscape"
   xmlns:sodipodi="http://sodipodi.sourceforge.net/DTD/sodipodi-0.dtd"
   xmlns="http://www.w3.org/2000/svg"
   xmlns:svg="http://www.w3.org/2000/svg">
  <sodipodi:namedview
     id="namedview3306"
     pagecolor="#ffffff"
     bordercolor="#000000"
     borderopacity="0.25"
     inkscape:showpageshadow="2"
     inkscape:pageopacity="0.0"
     inkscape:pagecheckerboard="0"
     inkscape:deskcolor="#d1d1d1"
     inkscape:document-units="px"
     showgrid="true"
     inkscape:zoom="2.8756734"
     inkscape:cx="89.718116"
     inkscape:cy="105.36662"
     inkscape:window-width="1680"
     inkscape:window-height="987"
     inkscape:window-x="-8"
     inkscape:window-y="-8"
     inkscape:window-maximized="1"
     inkscape:current-layer="text3805">
    <inkscape:grid
       type="xygrid"
       id="grid3429" />
  </sodipodi:namedview>
  <defs
     id="defs3301" />
  <g
     inkscape:label="Capa 1"
     inkscape:groupmode="layer"
     id="layer1">
    <circle
       style="fill:none;fill-opacity:1;stroke:#000000;stroke-width:12;stroke-linecap:round;stroke-linejoin:round;stroke-dasharray:240,24;stroke-dashoffset:0;stroke-opacity:1"
       id="path3436"
       cx="96.000214"
       cy="95.999954"
       r="90" />
    <g
       aria-label="Syoker"
       id="text3805"
       style="font-weight:bold;font-size:37.3333px;font-family:Quicksand;-inkscape-font-specification:'Quicksand Bold';text-align:center;text-anchor:middle;stroke-width:12;stroke-linecap:round;stroke-linejoin:round;stroke-dasharray:240, 24">
      <path
         d="m 43.791956,107.89333 q -2.613333,0 -4.704,-0.63467 -2.090666,-0.672 -3.994666,-2.31466 -0.485333,-0.41067 -0.746667,-0.93334 -0.261333,-0.52266 -0.261333,-1.04533 0,-0.85867 0.597333,-1.49333 0.634667,-0.672 1.568,-0.672 0.709334,0 1.269334,0.448 1.418666,1.15733 2.799999,1.75466 1.418667,0.59734 3.472,0.59734 1.381334,0 2.538667,-0.41067 1.157333,-0.448 1.866666,-1.15733 0.709334,-0.74667 0.709334,-1.68 0,-1.120003 -0.672,-1.904003 -0.672,-0.784 -2.053333,-1.306667 -1.381334,-0.56 -3.509334,-0.858666 -2.016,-0.298667 -3.546666,-0.896 -1.530667,-0.634667 -2.576,-1.568 -1.008,-0.970667 -1.530667,-2.24 -0.522666,-1.306667 -0.522666,-2.912 0,-2.426667 1.232,-4.144 1.269333,-1.717333 3.397333,-2.613333 2.128,-0.896 4.704,-0.896 2.426666,0 4.479999,0.746667 2.090667,0.709333 3.397334,1.829333 1.082666,0.858666 1.082666,1.978666 0,0.821334 -0.634666,1.493334 -0.634667,0.672 -1.493334,0.672 -0.56,0 -1.008,-0.336 -0.597333,-0.522667 -1.605333,-0.970667 -1.008,-0.485333 -2.128,-0.784 -1.12,-0.336 -2.090666,-0.336 -1.605334,0 -2.725334,0.410667 -1.082666,0.410666 -1.642666,1.12 -0.56,0.709333 -0.56,1.642666 0,1.12 0.634666,1.866667 0.672,0.709333 1.904,1.157333 1.232,0.410667 2.949334,0.746667 2.24,0.410666 3.919999,0.970666 1.717334,0.56 2.837334,1.456 1.12,0.858667 1.68,2.202667 0.56,1.306667 0.56,3.210663 0,2.42667 -1.344,4.18134 -1.344,1.75466 -3.546667,2.688 -2.165333,0.93333 -4.704,0.93333 z"
         id="path291" />
      <path
         d="m 72.12796,87.546664 q 0.970667,0 1.605333,0.672 0.634667,0.634667 0.634667,1.605333 v 15.866663 q 0,3.43467 -1.306667,5.45067 -1.269333,2.05333 -3.434666,2.94933 -2.165333,0.896 -4.853333,0.896 -1.194667,0 -2.538667,-0.18666 -1.344,-0.18667 -2.202667,-0.56 -1.12,-0.48534 -1.568,-1.232 -0.410666,-0.70934 -0.149333,-1.53067 0.336,-1.08267 1.082667,-1.49333 0.746666,-0.37334 1.568,-0.0747 0.597333,0.18667 1.568,0.56 0.970666,0.41067 2.24,0.41067 1.717333,0 2.837333,-0.48534 1.157333,-0.448 1.717333,-1.568 0.597333,-1.08266 0.597333,-2.98666 v -2.50134 l 0.784,0.896 q -0.634666,1.232 -1.605333,2.05334 -0.933333,0.784 -2.24,1.19466 -1.306666,0.41067 -2.986666,0.41067 -1.978667,0 -3.472,-0.896 -1.456,-0.93333 -2.277333,-2.53867 -0.821334,-1.64266 -0.821334,-3.73333 V 89.823997 q 0,-0.970666 0.634667,-1.605333 0.634666,-0.672 1.605333,-0.672 0.970667,0 1.605333,0.672 0.634667,0.634667 0.634667,1.605333 v 9.557333 q 0,2.42667 1.045333,3.43467 1.082667,0.97066 2.986667,0.97066 1.306667,0 2.202667,-0.48533 0.895999,-0.52267 1.381333,-1.49333 0.485333,-1.008 0.485333,-2.42667 v -9.557333 q 0,-0.970666 0.634667,-1.605333 0.634666,-0.672 1.605333,-0.672 z"
         id="path293" />
      <path
         d="m 98.410652,97.551997 q 0,3.061333 -1.381333,5.413333 -1.344,2.31467 -3.658667,3.62133 -2.277333,1.30667 -5.114666,1.30667 -2.837334,0 -5.152,-1.30667 -2.277333,-1.30666 -3.658667,-3.62133 -1.344,-2.352 -1.344,-5.413333 0,-3.061333 1.344,-5.376 1.381334,-2.352 3.658667,-3.658666 2.314666,-1.344 5.152,-1.344 2.837333,0 5.114666,1.344 2.314667,1.306666 3.658667,3.658666 1.381333,2.314667 1.381333,5.376 z m -4.48,0 q 0,-1.904 -0.784,-3.285333 -0.746666,-1.418667 -2.053333,-2.202667 -1.269333,-0.784 -2.837333,-0.784 -1.568,0 -2.874667,0.784 -1.269333,0.784 -2.053333,2.202667 -0.746667,1.381333 -0.746667,3.285333 0,1.866667 0.746667,3.285333 0.784,1.38133 2.053333,2.16533 1.306667,0.784 2.874667,0.784 1.568,0 2.837333,-0.784 1.306667,-0.784 2.053333,-2.16533 0.784,-1.418666 0.784,-3.285333 z"
         id="path295" />
      <path
         d="m 104.94401,107.52 q -0.97067,0 -1.60534,-0.63467 -0.63466,-0.672 -0.63466,-1.64267 V 82.170664 q 0,-0.970666 0.63466,-1.605333 0.63467,-0.672 1.60534,-0.672 0.97066,0 1.60533,0.672 0.63467,0.634667 0.63467,1.605333 v 23.071996 q 0,0.97067 -0.63467,1.64267 -0.63467,0.63467 -1.60533,0.63467 z m 11.872,-19.973336 q 0.85866,0 1.49333,0.709333 0.63467,0.709334 0.63467,1.381334 0,0.896 -0.896,1.68 l -11.23734,10.341329 -0.18666,-5.151996 8.54933,-8.250667 q 0.70933,-0.709333 1.64267,-0.709333 z m 0.56,19.935996 q -0.97067,0 -1.64267,-0.74666 l -6.90667,-7.317336 3.39734,-3.136 6.72,7.317336 q 0.70933,0.74666 0.70933,1.68 0,0.97066 -0.784,1.60533 -0.74667,0.59733 -1.49333,0.59733 z"
         id="path297" />
      <path
         d="m 132.16004,107.89333 q -3.17334,0 -5.52534,-1.30667 -2.31466,-1.344 -3.584,-3.62133 -1.232,-2.27733 -1.232,-5.152 0,-3.36 1.344,-5.711999 1.38134,-2.389334 3.584,-3.658667 2.20267,-1.269333 4.66667,-1.269333 1.904,0 3.584,0.784 1.71733,0.784 3.024,2.165333 1.30667,1.344 2.05333,3.136 0.784,1.792 0.784,3.808 -0.0373,0.896 -0.70933,1.456 -0.672,0.56 -1.568,0.56 h -14.26133 l -1.12,-3.733334 h 13.70133 l -0.82133,0.746667 v -1.008 q -0.0747,-1.082667 -0.784,-1.941333 -0.672,-0.858667 -1.71734,-1.344 -1.008,-0.522667 -2.16533,-0.522667 -1.12,0 -2.09067,0.298667 -0.97066,0.298667 -1.68,1.008 -0.70933,0.709333 -1.12,1.904 -0.41066,1.194666 -0.41066,3.024 0,2.016 0.82133,3.434666 0.85867,1.38133 2.16533,2.128 1.344,0.70933 2.83734,0.70933 1.38133,0 2.20266,-0.224 0.82134,-0.224 1.30667,-0.52266 0.52267,-0.336 0.93333,-0.56 0.672,-0.336 1.26934,-0.336 0.82133,0 1.344,0.56 0.56,0.56 0.56,1.30666 0,1.008 -1.04534,1.82934 -0.97066,0.82133 -2.72533,1.456 -1.75467,0.59733 -3.62133,0.59733 z"
         id="path299" />
      <path
         d="m 147.01871,107.52 q -0.97067,0 -1.60533,-0.63467 -0.63467,-0.672 -0.63467,-1.64267 V 89.823997 q 0,-0.970666 0.63467,-1.605333 0.63466,-0.672 1.60533,-0.672 0.97067,0 1.60533,0.672 0.63467,0.634667 0.63467,1.605333 v 3.509333 l -0.26133,-2.501333 q 0.41066,-0.896 1.04533,-1.568 0.672,-0.709333 1.49333,-1.157333 0.82134,-0.485333 1.75467,-0.709333 0.93333,-0.224 1.86667,-0.224 1.12,0 1.86666,0.634666 0.784,0.634667 0.784,1.493334 0,1.232 -0.63466,1.792 -0.63467,0.522666 -1.38134,0.522666 -0.70933,0 -1.30666,-0.261333 -0.56,-0.261333 -1.30667,-0.261333 -0.672,0 -1.38133,0.336 -0.672,0.298666 -1.26934,0.970666 -0.56,0.672 -0.93333,1.68 -0.336,0.970667 -0.336,2.314667 v 8.847996 q 0,0.97067 -0.63467,1.64267 -0.63466,0.63467 -1.60533,0.63467 z"
         id="path301" />
    </g>
  </g>
</svg>
