<?xml version="1.0" encoding="UTF-8" standalone="no"?>
<!-- Created with Inkscape (http://www.inkscape.org/) -->

<svg
   width="192.0px"
   height="192.0px"
   viewBox="0 0 192.0 192.0"
   version="1.1"
   id="SVGRoot"
   sodipodi:docname="icon.svg"
   inkscape:version="1.2 (dc2aedaf03, 2022-05-15)"
   inkscape:export-filename="icon-maskable-512x512.png"
   inkscape:export-xdpi="256"
   inkscape:export-ydpi="256"
   xmlns:inkscape="http://www.inkscape.org/namespaces/inkscape"
   xmlns:sodipodi="http://sodipodi.sourceforge.net/DTD/sodipodi-0.dtd"
   xmlns="http://www.w3.org/2000/svg"
   xmlns:svg="http://www.w3.org/2000/svg">
  <sodipodi:namedview
     id="namedview3306"
     pagecolor="#ffffff"
     bordercolor="#000000"
     borderopacity="0.25"
     inkscape:showpageshadow="2"
     inkscape:pageopacity="0.0"
     inkscape:pagecheckerboard="0"
     inkscape:deskcolor="#d1d1d1"
     inkscape:document-units="px"
     showgrid="true"
     inkscape:zoom="2.9862973"
     inkscape:cx="39.848678"
     inkscape:cy="101.46344"
     inkscape:window-width="1920"
     inkscape:window-height="1017"
     inkscape:window-x="-8"
     inkscape:window-y="-8"
     inkscape:window-maximized="1"
     inkscape:current-layer="layer1">
    <inkscape:grid
       type="xygrid"
       id="grid3429" />
  </sodipodi:namedview>
  <defs
     id="defs3301">
    <linearGradient
       id="linearGradient1064"
       inkscape:swatch="solid">
      <stop
         style="stop-color:#ffffff;stop-opacity:1;"
         offset="0"
         id="stop1062" />
    </linearGradient>
  </defs>
  <g
     inkscape:label="Capa 1"
     inkscape:groupmode="layer"
     id="layer1"
     style="fill:#ffffff;fill-opacity:1">
    <rect
       style="fill:#131313;fill-opacity:1;stroke:#131313;stroke-width:52.6276;stroke-linecap:square;stroke-linejoin:round;stroke-miterlimit:34;stroke-dasharray:none;stroke-opacity:1"
       id="rect4269"
       width="139.37239"
       height="139.37244"
       x="26.313805"
       y="26.313782" />
    <ellipse
       style="fill:none;fill-opacity:1;stroke:#ffffff;stroke-width:7.49999;stroke-linecap:round;stroke-linejoin:round;stroke-dasharray:149.999, 14.9999;stroke-dashoffset:0;stroke-opacity:1"
       id="path3436"
       cx="95.999992"
       cy="95.999924"
       rx="56.249821"
       ry="56.249897" />
    <g
       aria-label="S"
       id="text1226"
       style="font-weight:bold;font-size:96px;font-family:Quicksand;-inkscape-font-specification:'Quicksand Bold';text-align:center;text-anchor:middle;fill:#ffffff;fill-opacity:1;stroke-width:12;stroke-linecap:round;stroke-linejoin:round;stroke-dasharray:240, 24"
       transform="matrix(0.624998,0,0,0.62499888,36.000191,36.000103)">
      <path
         d="m 96.144002,130.56001 q -6.72,0 -12.096,-1.632 -5.376,-1.728 -10.272,-5.952 -1.248,-1.056 -1.92,-2.4 -0.672,-1.344 -0.672,-2.688 0,-2.208 1.536,-3.84 1.632,-1.728 4.032,-1.728 1.824,0 3.264,1.152 3.648,2.976 7.2,4.512 3.648,1.536 8.928,1.536 3.552,0 6.527998,-1.056 2.976,-1.152 4.8,-2.976 1.824,-1.92 1.824,-4.32 0,-2.88 -1.728,-4.896 -1.728,-2.016 -5.28,-3.36 -3.551998,-1.44 -9.023998,-2.208 -5.184,-0.768004 -9.12,-2.304004 -3.936,-1.632 -6.624,-4.032 -2.592,-2.496 -3.936,-5.76 -1.344,-3.36 -1.344,-7.488 0,-6.24 3.168,-10.656 3.264,-4.416 8.736,-6.72 5.472,-2.304 12.096,-2.304 6.239998,0 11.519998,1.92 5.376,1.824 8.736,4.704 2.784,2.208 2.784,5.088 0,2.112 -1.632,3.84 -1.632,1.728 -3.84,1.728 -1.44,0 -2.592,-0.864 -1.536,-1.344 -4.128,-2.496 -2.592,-1.248 -5.472,-2.016 -2.879998,-0.864 -5.375998,-0.864 -4.128,0 -7.008,1.056 -2.784,1.056 -4.224,2.88 -1.44,1.824 -1.44,4.224 0,2.88 1.632,4.8 1.728,1.824 4.896,2.976 3.168,1.056 7.584,1.92 5.759998,1.056 10.079998,2.496 4.416,1.44 7.296,3.744 2.88,2.208 4.32,5.664004 1.44,3.36 1.44,8.256 0,6.24 -3.456,10.752 -3.456,4.512 -9.12,6.912 -5.568,2.4 -12.095998,2.4 z"
         id="path1798"
         style="fill:#ffffff;fill-opacity:1" />
    </g>
  </g>
</svg>
