<?xml version="1.0" standalone="no"?>
<!DOCTYPE svg PUBLIC "-//W3C//DTD SVG 20010904//EN"
 "http://www.w3.org/TR/2001/REC-SVG-20010904/DTD/svg10.dtd">
<svg version="1.0" xmlns="http://www.w3.org/2000/svg"
 width="800.000000pt" height="800.000000pt" viewBox="0 0 800.000000 800.000000"
 preserveAspectRatio="xMidYMid meet">

<g transform="translate(0.000000,800.000000) scale(0.100000,-0.100000)"
fill="#000000" stroke="none">
<path d="M880 7993 c-167 -26 -300 -76 -427 -158 -215 -140 -370 -365 -429
-620 -18 -77 -19 -194 -19 -3230 l0 -3150 27 -97 c98 -354 363 -620 710 -713
l93 -25 3170 0 3170 0 93 25 c346 93 614 361 707 707 l25 93 0 3166 0 3166
-24 96 c-89 351 -362 620 -731 720 l-80 22 -3130 1 c-1722 1 -3141 0 -3155 -3z
m3538 -518 c674 -86 1255 -333 1787 -759 129 -103 409 -382 511 -511 426 -533
666 -1099 760 -1790 23 -165 26 -634 6 -800 -102 -839 -453 -1554 -1043 -2130
-570 -556 -1247 -875 -2069 -977 -138 -17 -602 -17 -740 0 -704 87 -1280 326
-1820 753 -132 104 -421 392 -526 524 -435 545 -683 1140 -766 1840 -17 144
-17 596 0 740 94 796 422 1499 957 2054 524 543 1173 892 1905 1025 117 21
187 30 395 50 92 9 527 -4 643 -19z"/>
<path d="M1975 4535 c-119 -48 -197 -171 -180 -283 20 -137 77 -188 320 -282
76 -30 122 -55 150 -81 38 -36 40 -40 40 -99 0 -58 -2 -63 -37 -95 -106 -98
-265 -61 -335 79 -14 28 -27 53 -29 55 -8 9 -144 -54 -144 -67 0 -29 64 -133
107 -173 25 -22 70 -53 101 -67 50 -24 69 -27 162 -27 92 0 112 3 160 26 120
57 171 128 178 250 6 98 -13 156 -72 217 -54 57 -104 86 -221 128 -157 56
-192 78 -215 138 -15 41 3 90 47 123 28 21 49 28 98 31 77 5 130 -20 166 -79
18 -28 29 -37 42 -33 44 14 127 54 127 63 0 20 -68 108 -108 138 -88 67 -245
84 -357 38z"/>
<path d="M4230 4025 l0 -515 80 0 80 0 0 113 0 113 53 52 54 53 107 -166 108
-165 94 0 c52 0 94 2 94 5 0 3 -66 102 -146 221 l-147 216 142 142 c77 78 141
145 141 150 0 5 -46 5 -102 2 l-103 -7 -147 -152 -147 -152 0 303 -1 302 -80
0 -80 0 0 -515z"/>
<path d="M3636 4260 c-71 -13 -168 -64 -211 -111 -100 -111 -128 -298 -65
-443 29 -69 109 -148 183 -182 56 -26 72 -29 167 -29 93 0 112 3 162 27 151
71 228 209 215 390 -16 231 -220 388 -451 348z m170 -163 c81 -42 123 -118
124 -221 0 -85 -24 -141 -82 -190 -75 -64 -178 -70 -260 -16 -58 39 -87 86
-100 162 -16 90 7 164 67 222 24 24 58 48 77 54 43 14 136 9 174 -11z"/>
<path d="M5231 4260 c-109 -23 -203 -100 -254 -208 -30 -63 -32 -74 -32 -177
0 -100 3 -116 29 -172 33 -73 112 -153 183 -186 40 -18 66 -22 158 -22 100 0
115 3 166 28 57 27 159 124 159 150 0 7 -27 26 -60 42 l-60 29 -38 -39 c-66
-68 -145 -89 -235 -64 -71 19 -146 110 -147 177 l0 22 281 0 282 0 -5 83 c-8
147 -78 257 -201 312 -60 27 -161 38 -226 25z m188 -163 c22 -15 50 -45 61
-67 37 -72 43 -70 -175 -70 -169 0 -195 2 -195 15 0 43 74 129 126 145 54 17
138 6 183 -23z"/>
<path d="M6133 4259 c-59 -11 -96 -32 -137 -81 l-36 -42 0 52 0 52 -75 0 -75
0 0 -365 0 -365 80 0 81 0 -2 224 c-1 205 1 227 19 262 51 99 143 134 260 98
22 -6 22 -5 22 75 0 57 -4 83 -12 85 -32 10 -87 12 -125 5z"/>
<path d="M2530 4238 c0 -7 67 -165 149 -351 l149 -338 -79 -171 c-43 -94 -79
-172 -79 -174 0 -2 37 -4 83 -4 l83 0 224 516 c124 284 227 520 228 525 4 10
-65 12 -131 3 l-46 -7 -98 -243 c-54 -134 -100 -244 -103 -244 -3 0 -50 110
-105 245 l-100 245 -72 0 c-39 0 -78 3 -87 6 -10 4 -16 1 -16 -8z"/>
</g>
</svg>
